<?xml version="1.0" encoding="UTF-8"?>
<svg id="Capa_2" data-name="Capa 2" xmlns="http://www.w3.org/2000/svg" viewBox="0 0 347.2 278.71">
  <defs>
    <style>
      .cls-1 {
        fill: #fff;
        stroke: #000;
        stroke-miterlimit: 10;
      }
    </style>
  </defs>
  <g id="Layer_1" data-name="Layer 1">
    <path class="cls-1" d="m283.15,153.42c-5.16,0-10.33-.09-15.49.05-2.02.05-3.3-.64-4.53-2.19-5.31-6.66-10.74-13.23-16.13-19.83-.68-.84-1.35-1.69-2.1-2.47-1.33-1.37-2.81-3.4-4.72-2.69-1.99.74-.82,3.18-.89,4.84-.15,3.96-.08,7.92,0,11.88.12,5.27,1.51,6.83,6.6,7.65.59.09,1.2.07,1.79.18.95.17,2.43-.41,2.42,1.32,0,1.75-1.48,1.23-2.42,1.24-5.64.05-11.29.03-16.93.02-2.88,0-5.76,0-8.64-.01-.82,0-1.75.12-1.84-1.13-.09-1.19.71-1.23,1.57-1.46,5.78-1.53,6.32-2.15,6.34-8.11.05-12.73.05-25.45,0-38.18-.02-5.61-.32-5.94-5.46-7.7-.76-.26-1.74-.23-1.71-1.44.03-1.17.84-1.33,1.73-1.3,11.73.39,23.56-1.22,35.18,1.28,8.33,1.79,12.65,6.5,12.9,13.31.28,7.55-4.12,13.54-12.19,15.67-3.62.95-2.93,1.91-1.03,4.02,5.14,5.71,10.13,11.55,15.17,17.35,2.02,2.32,4.35,4.13,7.47,4.66,4.71.8,8.1-1.41,10.32-6.94,5.41-13.45,10.74-26.92,16.11-40.39.89-2.23,1.87-4.42,2.67-6.67.68-1.93,1.42-3.18,3.95-3.2,2.64-.02,3.16,1.52,3.9,3.33,5.83,14.32,11.65,28.63,17.54,42.92,2.1,5.09,3.87,10.59,10.7,11.24,1.01.1,1.39.85,1.2,1.84-.18.98-.99.9-1.69.9-8.28.01-16.57.01-24.85,0-.81,0-1.75.13-1.87-1.11-.11-1.12.63-1.32,1.49-1.62,5.88-2.09,6.07-2.57,3.92-8.69q-2.34-6.63-9.44-6.63c-4.32,0-8.65.07-12.97-.03-1.82-.04-2.96.49-3.51,2.28-.71,2.28-1.66,4.5-2.26,6.81-1.09,4.17-.22,5.44,3.89,6.34,1,.22,2.81-.45,2.55,1.57-.24,1.86-1.9,1.05-2.92,1.06-5.28.09-10.56.04-15.85.04Zm-43.91-43.6c0,2.87.13,5.75-.04,8.61-.14,2.42.61,3.62,3.18,3.38,2.5-.23,5.04-.16,7.5-.58,6.74-1.17,9.79-5.71,9.26-13.43-.4-5.77-4.8-9.66-11.17-9.82-1.79-.05-3.6.09-5.38-.04-2.44-.18-3.52.73-3.38,3.28.15,2.86.03,5.74.03,8.61Zm71.41-2.16c-.36-.02-.72-.04-1.08-.06-2.85,7.29-5.7,14.58-8.54,21.88-.53,1.35.26,1.76,1.38,1.76,4.9.03,9.8.02,14.7.01,1.56,0,2.24-.75,1.65-2.28-2.69-7.11-5.41-14.21-8.12-21.31Z"/>
    <path class="cls-1" d="m170.72,258.36c53.68,0,107.35,0,161.03,0,3.91,0,5.67,2.8,4.16,6.46-.44,1.07-1.21,1-2.03,1.01-1.8.02-3.6.01-5.4.01-46.71,0-93.42.04-140.14-.08-3.44,0-5.9.89-8.12,3.45-2.36,2.71-5.18,5.02-7.55,7.72-1.64,1.87-2.7,1.58-4.23-.07-2.69-2.91-5.69-5.53-8.33-8.47-1.77-1.97-3.69-2.6-6.31-2.6-48.03.07-96.07.05-144.1.05-5.41,0-5.35,0-4.97-5.36.11-1.48.47-2.26,2.08-2.13.95.07,1.92,0,2.88,0,53.68,0,107.35,0,161.03,0Z"/>
    <path class="cls-1" d="m170.5,68.8c53.81,0,107.61,0,161.42,0,3.67,0,5.62,3.31,3.95,6.61-.42.83-1.08.83-1.78.85-.96.03-1.92.02-2.88.02-47.92,0-95.84.02-143.76-.05-2.71,0-4.78.6-6.62,2.68-2.7,3.05-5.74,5.81-8.51,8.8-1.3,1.4-2.18,1.33-3.44-.02-2.78-2.99-5.78-5.78-8.51-8.8-1.74-1.93-3.62-2.67-6.27-2.67-48.16.08-96.32.06-144.48.06-5.05,0-5.62-.75-4.86-5.82.19-1.22.64-1.68,1.81-1.65,1.08.03,2.16,0,3.24,0,53.57,0,107.13,0,160.7,0Z"/>
    <path class="cls-1" d="m216.89,237.75c-5.04,0-10.09-.09-15.13.05-2.01.05-3.31-.63-4.55-2.18-5.01-6.29-10.14-12.49-15.23-18.72-.84-1.02-1.64-2.08-2.54-3.04-1.46-1.56-3.01-3.97-5.2-3.25-2.38.79-.95,3.57-1.08,5.44-.23,3.35-.11,6.72-.05,10.08.12,6.69,1.78,8.4,8.48,9.05,1.02.1,2.8-.68,2.81,1.22.01,2.23-1.95,1.29-3.02,1.3-7.92.09-15.85.08-23.78.01-1.05,0-2.7.73-3.03-.98-.37-1.94,1.45-1.51,2.48-1.69,3.16-.56,4.85-2.41,5.15-5.57.11-1.19.25-2.39.25-3.59.02-12.01.03-24.02,0-36.03,0-4.13-.28-8.15-5.74-8.75-.93-.1-1.57-.63-1.35-1.71.19-.92.95-1,1.67-.97,11.61.38,23.32-1.19,34.83,1.25,8.25,1.75,12.7,6.42,12.9,12.86.25,8.25-3.7,13.86-11.97,16.12-3.24.89-3.32,1.63-1.21,3.96,5.16,5.69,10.13,11.55,15.19,17.34.47.54.95,1.09,1.48,1.58,5.89,5.51,13.18,4.08,16.2-3.35,5.42-13.32,10.67-26.71,16-40.07,1.02-2.56,2.12-5.09,3.04-7.69.66-1.88,1.5-2.91,3.82-2.9,2.32,0,3.04,1.08,3.78,2.92,6.09,14.99,12.26,29.94,18.41,44.91,1.86,4.53,3.82,8.93,9.61,9.53.87.09,1.56.62,1.45,1.7-.12,1.2-1.03,1.15-1.86,1.15-8.29,0-16.57,0-24.86,0-.83,0-1.73.09-1.82-1.16-.08-1.17.67-1.37,1.56-1.52.95-.16,1.9-.33,2.82-.58,2.09-.56,2.9-1.97,2.56-4.07-.06-.35-.22-.68-.31-1.03q-2.45-9.68-12.21-9.68c-3,0-6.01-.12-9,.05-1.77.1-4.16-1.08-5.15,1.3-1.59,3.82-3.97,7.57-2.69,11.99.46,1.58,2.25,1.58,3.61,2.01,1,.32,2.83-.3,2.52,1.66-.28,1.79-1.94,1.01-2.97,1.02-5.28.08-10.57.04-15.85.04Zm-43.79-43.26c0,.72,0,1.44,0,2.16,0,10.53.42,10.87,10.79,8.94,6.42-1.19,10.04-6.05,9.5-12.74-.52-6.47-4.74-10.39-11.37-10.56-1.92-.05-3.84.07-5.76-.03-2.37-.13-3.22,1-3.17,3.24.07,3,.02,6,0,8.99Zm71.59-2.63c-.33,0-.67-.02-1-.03-2.84,7.2-5.71,14.39-8.52,21.61-.51,1.31.07,2.11,1.49,2.12,5.03.02,10.06.02,15.09-.02,1.3-.01,1.59-.74,1.14-1.93-2.75-7.24-5.47-14.49-8.2-21.74Z"/>
    <path class="cls-1" d="m45.33,223.59c2.65-6.65,5.16-12.95,7.67-19.26,3.1-7.79,6.22-15.58,9.26-23.39.62-1.59,1.28-2.62,3.29-2.58,5.76.13,11.52.03,17.29.06.9,0,2.07-.28,2.27,1.12.2,1.44-1.02,1.44-1.9,1.59-3.69.61-5.28,2.91-5.47,6.48-.72,13.55-.6,27.1-.07,40.65.16,4.13,2.13,6.46,6.32,6.83,1.03.09,2.4-.03,2.13,1.65-.22,1.38-1.45,1-2.34,1-7.8.02-15.61.03-23.41,0-.87,0-2.11.43-2.36-.96-.31-1.67,1.08-1.57,2.1-1.73,3.23-.51,5.8-1.8,6.08-5.49,1.07-13.85.18-27.7.51-42.08-1.94,1-2.07,2.4-2.53,3.53-5.94,14.53-11.85,29.07-17.78,43.6-.78,1.9-.98,3.96-4.12,4.03-3.33.07-3.58-2.16-4.42-4.14-6.09-14.46-12.15-28.94-18.23-43.41-.44-1.06-1.01-2.06-1.53-3.09-1.14.48-.84,1.31-.84,1.94,0,12.36-.02,24.73.09,37.09.05,5.66,1.13,6.84,6.57,8.07.87.2,2.06-.09,2.02,1.42-.05,1.53-1.22,1.22-2.1,1.22-6.36.03-12.73.02-19.09,0-.89,0-2.05.3-2.1-1.23-.05-1.51,1.15-1.21,2.02-1.41,5.62-1.29,6.57-1.85,6.81-7.53.55-13.18.64-26.38-.06-39.58-.21-3.85-1.86-6.36-5.89-6.93-.9-.13-2.13-.07-1.92-1.53.2-1.35,1.36-1.12,2.28-1.12,6.12-.02,12.25.08,18.37-.06,2.26-.05,2.75,1.3,3.4,2.93,5.14,12.91,10.34,25.8,15.52,38.69.44,1.08.62,2.31,2.18,3.61Z"/>
    <path class="cls-1" d="m298.45,233.76c9.12-.04,18.21.6,27.25-.33,5.78-.59,7.95-4.93,9.31-10.07.42-1.58-.73-5.1,2.48-4.55,2.77.47,1.09,3.42,1.12,5.18.07,3.83-.43,7.67-.52,11.5-.04,1.7-.62,2.28-2.32,2.27-17.3-.04-34.59-.02-51.89-.03-.69,0-1.6.28-1.99-.44-.66-1.23.5-1.98,1.08-2.8,11.59-16.07,23.22-32.1,34.8-48.18.85-1.19,2.72-2.38,1.95-3.85-.65-1.23-2.66-.56-4.05-.57-5.16,0-10.33.09-15.49.12-6.29.04-10.03,3.31-11.71,9.21-.31,1.1-.23,2.77-1.96,2.39-1.45-.32-.79-1.82-.74-2.78.17-3.35.59-6.7.68-10.05.05-1.93.86-2.42,2.63-2.42,14.89.04,29.79.03,44.68.02,2.82,0,2.74,1.25,1.42,3.1-2.94,4.1-5.88,8.19-8.83,12.28-8.7,12.08-17.42,24.15-26.1,36.24-.73,1.02-1.87,1.88-1.81,3.74Z"/>
    <path class="cls-1" d="m26.27,153.42c-7.69,0-15.37.03-23.06-.03-1.01,0-2.68.73-2.71-1.3-.03-1.72,1.53-1.24,2.44-1.38,3.64-.57,5.46-2.54,5.57-6.29.38-13.92.47-27.84-.06-41.76-.12-3.17-1.46-5.21-4.82-5.68-.96-.14-2.43-.19-2.12-1.81.3-1.54,1.69-1.06,2.67-1.06,14.17-.03,28.34.02,42.51-.06,2.25-.01,3.25.53,3.2,2.98-.06,3.11.33,6.23.45,9.35.04.96.56,2.3-1.26,2.38-1.21.05-1.53-.62-1.89-1.67-2.47-7.18-4.76-8.9-12.25-9.14-4.08-.13-8.17-.04-12.25-.12-2.28-.04-3.24.97-3.22,3.25.06,5.76.07,11.53,0,17.29-.03,1.96.83,2.51,2.6,2.4,1.92-.12,3.85-.02,5.76-.19,4.9-.45,6.6-1.97,7.91-6.84.26-.99.21-2.46,1.71-2.27,1.33.17.89,1.52.89,2.38.04,5.76.03,11.53,0,17.29,0,.78.25,1.88-.87,2.08-1.28.23-1.58-.81-1.76-1.8-.89-5.09-4.32-6.66-9.04-6.92-7.19-.38-7.19-.51-7.19,6.57,0,3.12-.03,6.25.01,9.37.07,5.42,2.17,8.08,7.48,8.82,4.16.58,8.4.54,12.58-.03,5.92-.81,9.3-4.46,10.88-10.08.3-1.07.11-3.13,2.14-2.6,1.59.41.86,2.04.82,3.12-.14,3.48-.65,6.95-.62,10.41.02,2.63-.73,3.49-3.46,3.42-7.68-.2-15.37-.07-23.06-.07Z"/>
    <path class="cls-1" d="m119.14,237.75c-7.69,0-15.37.02-23.06-.03-.93,0-2.36.63-2.6-1.05-.25-1.74,1.21-1.47,2.18-1.6,3.78-.5,5.73-2.49,5.84-6.43.35-13.8.42-27.6-.04-41.41-.11-3.29-1.41-5.5-4.95-5.96-.86-.11-2.12-.18-2.05-1.54.09-1.64,1.44-1.32,2.45-1.32,14.41-.02,28.82,0,43.23-.01,1.39,0,2.62-.01,2.67,1.97.09,3.6.37,7.19.53,10.79.03.78.28,1.78-1.03,1.89-1.08.09-1.86-.17-2.08-1.41-1.36-7.62-6.74-9.52-13.5-9.47-3.6.03-7.21.03-10.81-.05-2.39-.06-3.52.85-3.48,3.37.09,5.64.09,11.29,0,16.93-.04,2.05.7,2.83,2.72,2.66,1.67-.14,3.36-.05,5.04-.15,5.31-.33,7.11-1.83,8.54-6.99.27-.98.25-2.46,1.79-2.14,1.25.26.79,1.59.8,2.46.05,5.64.05,11.29,0,16.93,0,.85.43,2.14-.97,2.33-1.29.17-1.38-.97-1.69-1.89-1.83-5.62-9.07-8.99-14.87-7.04-1.21.41-1.32,1.22-1.32,2.22,0,5.16-.11,10.33.08,15.49.13,3.62,2.12,6.03,5.76,6.87,4.87,1.12,9.79.93,14.66.25,5.83-.81,8.91-4.65,10.47-10.06.29-.99.05-2.79,1.87-2.55,1.85.24,1.11,1.88,1.07,2.91-.16,3.84-.6,7.66-.67,11.5-.04,2.12-.87,2.58-2.8,2.56-7.93-.09-15.85-.04-23.78-.04Z"/>
    <path class="cls-1" d="m152.86,139.74c.83-2.05,1.68-4.1,2.48-6.18,3.45-8.94,6.9-17.87,10.31-26.82.51-1.34.96-2.72,1.24-4.12.84-4.23.22-5.07-3.92-5.92-.92-.19-2.51.41-2.47-1.3.04-1.93,1.71-1.29,2.76-1.3,5.28-.06,10.56-.05,15.84,0,.97,0,2.34-.46,2.52,1.22.15,1.42-1.11,1.46-1.94,1.65-4.15.95-5.97,4.03-7.4,7.63-6.14,15.47-12.35,30.92-18.51,46.39-.73,1.83-1.24,3.33-3.87,3.3-2.53-.02-3.21-1.29-3.98-3.19-5.49-13.54-11.03-27.06-16.59-40.57-1-2.43-2.12-4.82-3.29-7.18-1.61-3.23-3.76-5.84-7.67-6.37-.88-.12-2.01-.28-1.89-1.68.1-1.19.98-1.2,1.84-1.2,8.28,0,16.56,0,24.84,0,.9,0,1.7.14,1.73,1.31.03,1.19-.91,1.21-1.7,1.45-5.42,1.66-5.92,2.41-4.04,7.72,3.92,11.06,8,22.06,12.03,33.07.28.75.33,1.69,1.68,2.09Z"/>
    <path class="cls-1" d="m87.55,153.42c-7.8,0-15.6.02-23.4-.02-.95,0-2.38.54-2.58-1.1-.2-1.67,1.29-1.5,2.25-1.62,4.01-.51,5.54-3.15,5.57-6.74.09-13.44.1-26.88.01-40.32-.02-3.54-1.36-6.33-5.48-6.76-.84-.09-1.67-.44-1.55-1.59.13-1.18,1.02-1.17,1.87-1.17,7.32,0,14.64,0,21.96,0,.87,0,1.74.06,1.81,1.24.07,1.2-.89,1.19-1.68,1.45-5.44,1.8-6.13,2.62-6.17,8.41-.07,11.28-.09,22.56,0,33.85.06,7.38,2.9,10.2,10.26,10.43,2.64.09,5.28.08,7.92.01,7.75-.19,11.33-2.89,13.72-10.23.38-1.17.29-3.03,2.17-2.69,2.02.36.95,2.12.89,3.25-.19,3.71-.6,7.41-.83,11.11-.12,1.99-1.05,2.56-2.98,2.54-7.92-.09-15.84-.04-23.76-.04Z"/>
    <path class="cls-1" d="m154.48,50.48c1.87-5.63,3.47-10.89,5.38-16.03.79-2.13.3-3.25-1.47-4.45-4.61-3.14-9.1-6.44-14.43-10.24,6.59,0,12.18-.09,17.77.04,2.15.05,3.2-.6,3.81-2.74,1.51-5.25,3.3-10.42,5.68-15.67,1.58,4.95,3.34,9.84,4.67,14.86.76,2.87,2.14,3.73,5.04,3.59,5.22-.25,10.47-.07,16.85-.07-5.29,3.77-9.64,7.03-14.16,10.02-2.08,1.37-2.53,2.69-1.66,5.02,1.91,5.12,3.53,10.34,5.6,16.52-4.15-3.04-7.48-5.48-10.81-7.94q-5.86-4.34-11.88.08c-3.09,2.27-6.17,4.55-9.27,6.81-.17.12-.45.09-1.14.22Z"/>
    <path class="cls-1" d="m199.02,153.42c-3.72,0-7.44.02-11.16-.02-.87,0-2.05.37-2.2-1.13-.14-1.45,1.02-1.32,1.91-1.57,4.69-1.35,5.88-2.65,5.93-7.58.11-12.84.09-25.68,0-38.52-.02-3.68-.95-6.97-5.42-7.68-.94-.15-1.95-.51-1.66-1.86.25-1.15,1.22-.98,2.02-.98,7.08-.02,14.16-.02,21.24,0,.92,0,2.05-.2,2.16,1.23.12,1.42-1.11,1.48-1.95,1.63-4.04.68-5.11,3.45-5.23,7.02-.42,13.2-.44,26.39,0,39.59.17,4.96,1.07,5.92,5.85,7.17.85.22,2.1-.1,2.05,1.4-.06,1.78-1.47,1.25-2.41,1.26-3.72.06-7.44.02-11.16.02Z"/>
    <path class="cls-1" d="m232.06,33.39c-3.46,2.49-6.01,4.45-8.69,6.2-1.82,1.19-2.19,2.45-1.36,4.48,1.17,2.86,2.01,5.86,3.17,9.36-3.41-1.4-5.73-3.55-8.13-5.47-1.93-1.55-3.33-1.72-5.28-.06-2.4,2.05-5.08,3.76-8.45,6.2,1.37-4.14,2.3-7.32,3.5-10.4.71-1.82.25-2.9-1.26-3.93-2.66-1.81-5.24-3.73-8.39-5.98,3-.78,5.48-.58,7.85-.34,3.82.38,6.07-.66,6.69-4.79.36-2.42,1.5-4.72,2.64-8.13,1.33,4.07,2.45,7.13,3.31,10.27.54,1.95,1.5,2.73,3.55,2.64,3.23-.14,6.47-.04,10.84-.04Z"/>
    <path class="cls-1" d="m137.8,53.49c-2.54-1.79-5.19-3.45-7.58-5.41-1.97-1.61-3.5-1.87-5.55-.08-2.32,2.03-4.96,3.7-8.34,6.18,1.35-4.03,2.3-7.13,3.44-10.16.75-1.98.44-3.28-1.45-4.47-2.68-1.68-5.16-3.67-8.59-6.16,4.14,0,7.22-.19,10.27.06,2.57.21,3.65-.87,4.27-3.18.82-3.09,1.9-6.1,3.13-9.95,1.23,3.89,2.35,6.92,3.13,10.04.61,2.44,1.87,3.26,4.34,3.09,3.04-.21,6.11-.05,10.25-.05-3.58,2.57-6.2,4.6-8.97,6.39-1.63,1.05-1.8,2.18-1.25,3.9,1.04,3.27,2.76,6.36,2.84,9.91l.08-.1Z"/>
    <path class="cls-1" d="m85.36,46.29c7.79,1.77,9.92-2.55,10.94-8.67.97,6.41,3.65,10.15,11.16,8.63-6.44,3.12-7.49,7.3-4.48,12.97-2.22-1.43-4.43-3.97-6.65-3.98-2.18-.01-4.37,2.55-7.72,4.75,3.48-6.07,3.72-10.63-3.25-13.71Z"/>
    <path class="cls-1" d="m234.15,46.28c6.93,1.08,10.57-1.31,11.14-8.41.98,6.6,4.16,9.75,11.16,7.86-1.91,3.18-5.68,3.51-6,6.08-.27,2.25,1.18,4.7,1.74,7.76-4.67-5.49-9.16-5.04-13.97.11,3.53-6.04,2.59-10.35-4.07-13.39Z"/>
    <path class="cls-1" d="m137.73,53.59c.1-.03.2-.06.29-.09-.07,0-.14-.01-.22-.02,0,0-.08.1-.08.1Z"/>
  </g>
</svg>